<?xml version="1.0" encoding="UTF-8"?>
<!-- Generator: Adobe Illustrator 24.3.0, SVG Export Plug-In . SVG Version: 6.00 Build 0)  -->
<svg version="1.1" id="Layer_1" xmlns="http://www.w3.org/2000/svg" xmlns:xlink="http://www.w3.org/1999/xlink" x="0px" y="0px" viewBox="0 0 80 80" style="enable-background:new 0 0 80 80;" xml:space="preserve">
<style type="text/css">
	.st0{fill:#2F90FF;}
</style>
<g>
	<path class="st0" d="M78.7,64.7L46.1,8.3c-2.7-4.7-9.5-4.7-12.2,0L1.4,64.7C-1.3,69.4,2,75.3,7.5,75.3h65.1   C78,75.3,81.4,69.4,78.7,64.7z M43.4,64.2c-0.8,0.8-1.9,1.2-3.3,1.2c-1.5,0-2.6-0.4-3.3-1.2c-0.8-0.8-1.1-1.9-1.1-3.3   c0-1.4,0.4-2.5,1.1-3.3c0.8-0.8,1.9-1.2,3.4-1.2s2.6,0.4,3.4,1.2c0.8,0.8,1.1,1.9,1.1,3.3C44.5,62.3,44.1,63.4,43.4,64.2z    M43.1,52.8h-6.2l-1.4-28h9L43.1,52.8z"/>
</g>
</svg>