<svg width="21" height="19" viewBox="0 0 21 19" fill="none" xmlns="http://www.w3.org/2000/svg">
<path d="M0.219053 17.1658L5.13728 10.215C5.49354 9.71155 6.16121 9.61835 6.62416 10.0075L9.59447 12.5042C10.0945 12.9246 10.8221 12.7777 11.148 12.1906L14.2773 6.55401C14.7099 5.77482 15.7706 5.8281 16.1345 6.6473L20.8947 17.3652C21.2311 18.1227 20.7203 19 19.9429 19H1.05773C0.183158 19 -0.312207 17.9167 0.219053 17.1658Z" fill="#1D2543"/>
<path d="M8 3C8 4.65685 6.65685 6 5 6C3.34315 6 2 4.65685 2 3C2 1.34315 3.34315 0 5 0C6.65685 0 8 1.34315 8 3Z" fill="#1D2543"/>
</svg>