<?xml version="1.0" encoding="UTF-8"?>
<!-- Generator: Adobe Illustrator 24.3.0, SVG Export Plug-In . SVG Version: 6.00 Build 0)  -->
<svg version="1.1" id="Layer_1" xmlns="http://www.w3.org/2000/svg" xmlns:xlink="http://www.w3.org/1999/xlink" x="0px" y="0px" viewBox="0 0 512 512" style="enable-background:new 0 0 512 512;" xml:space="preserve">
<style type="text/css">
	.st0{fill:#FFFFFF;}
</style>
<path class="st0" d="M396.4,268.3h60V412h-60V268.3z"/>
<path class="st0" d="M282.8,268.3h60V412h-60V268.3z"/>
<path class="st0" d="M169.2,268.3h60V412h-60V268.3z"/>
<path class="st0" d="M55.6,268.3h60V412h-60V268.3z"/>
<path class="st0" d="M476.4,223.3v-15H35.6v15c0,8.3,6.7,15,15,15h410.8C469.7,238.3,476.4,231.6,476.4,223.3z"/>
<path class="st0" d="M497,442H15c-8.3,0-15,6.7-15,15v40c0,8.3,6.7,15,15,15h482c8.3,0,15-6.7,15-15v-40  C512,448.7,505.3,442,497,442z"/>
<path class="st0" d="M15,178.3h482c6.7,0,12.6-4.5,14.4-10.9c1.8-6.5-0.9-13.3-6.6-16.9L263.9,2.2c-4.8-3-10.9-3-15.7,0L7.1,150.6  c-5.7,3.5-8.4,10.4-6.6,16.9C2.4,173.9,8.3,178.3,15,178.3z M245.8,88.2h20.4c8.3,0,15,6.7,15,15s-6.7,15-15,15h-20.4  c-8.3,0-15-6.7-15-15S237.5,88.2,245.8,88.2z"/>
</svg>