<?xml version="1.0" encoding="UTF-8"?>
<!-- Generator: Adobe Illustrator 24.3.0, SVG Export Plug-In . SVG Version: 6.00 Build 0)  -->
<svg version="1.1" id="Layer_1" xmlns="http://www.w3.org/2000/svg" xmlns:xlink="http://www.w3.org/1999/xlink" x="0px" y="0px" viewBox="0 0 64 64" style="enable-background:new 0 0 64 64;" xml:space="preserve">
<style type="text/css">
	.st0{fill:#FFFFFF;}
</style>
<g id="Group_1249" transform="translate(17894 1654)">
	<g id="trash" transform="translate(-17894 -1654)">
		<g id="Group_1248" transform="translate(0)">
			<path id="Path_1067" class="st0" d="M57.7,13.4c-0.2-0.2-0.5-0.3-0.8-0.3H45.4l-2.6-6.2c-0.4-1-1.1-1.8-2-2.3     C40,4,39,3.7,37.9,3.6H26.1c-1.1,0-2.1,0.4-2.9,1c-0.9,0.6-1.6,1.4-2,2.3l-2.6,6.2H7.2c-0.6,0-1.2,0.5-1.2,1.1v0.1v2.4     c0,0.6,0.5,1.2,1.1,1.2h0.1h3.5V53c-0.1,1.9,0.6,3.7,1.7,5.2c1,1.3,2.5,2.1,4.2,2.2h30.7c1.7,0,3.2-0.9,4.2-2.2     c1.2-1.5,1.8-3.4,1.7-5.3v-35h3.5c0.6,0,1.2-0.5,1.2-1.1v-0.1v-2.4C58,14,57.9,13.7,57.7,13.4z M25.5,8.8     c0.2-0.2,0.4-0.4,0.6-0.4h11.7c0.3,0.1,0.5,0.2,0.6,0.4l1.8,4.3H23.7L25.5,8.8z M48.5,52.8c0,0.5-0.1,1-0.3,1.5     c-0.1,0.4-0.3,0.7-0.5,1c-0.2,0.2-0.3,0.3-0.4,0.3H16.6c-0.1,0-0.2-0.1-0.4-0.3c-0.2-0.3-0.4-0.6-0.5-1c-0.2-0.5-0.3-1-0.3-1.5     v-35h33.1V52.8L48.5,52.8z"/>
			<path id="Path_1068" class="st0" d="M21.4,48.5h2.4c0.6,0,1.2-0.5,1.2-1.1v-0.1V26.1c0-0.6-0.5-1.2-1.1-1.2h-0.1h-2.4     c-0.6,0-1.2,0.5-1.2,1.1v0.1v21.3C20.2,48,20.7,48.5,21.4,48.5C21.3,48.5,21.3,48.5,21.4,48.5z"/>
			<path id="Path_1069" class="st0" d="M30.8,48.5h2.4c0.6,0,1.2-0.5,1.2-1.1v-0.1V26.1c0-0.6-0.5-1.2-1.1-1.2h-0.1h-2.4     c-0.6,0-1.2,0.5-1.2,1.1v0.1v21.3C29.6,48,30.1,48.5,30.8,48.5L30.8,48.5z"/>
			<path id="Path_1070" class="st0" d="M40.3,48.5h2.4c0.6,0,1.2-0.5,1.2-1.1v-0.1V26.1c0-0.6-0.5-1.2-1.1-1.2h-0.1h-2.4     c-0.6,0-1.2,0.5-1.2,1.1v0.1v21.3C39.1,48,39.6,48.5,40.3,48.5C40.2,48.5,40.2,48.5,40.3,48.5z"/>
		</g>
	</g>
</g>
</svg>